<svg width="100" height="15" viewBox="0 0 100 15" fill="none" xmlns="http://www.w3.org/2000/svg">
<g opacity="0.57">
<path opacity="0.57" d="M95.7354 12.657C95.1366 13.3027 94.3778 13.7788 93.5359 14.037C91.8865 14.4634 90.1363 14.2392 88.6475 13.411C87.1587 12.5827 86.0453 11.2136 85.5376 9.58716C85.2469 8.68222 85.1435 7.72753 85.2338 6.78133C85.324 5.83512 85.606 4.91723 86.0625 4.08358C86.519 3.24993 87.1405 2.51801 87.8891 1.93244C88.6376 1.34686 89.4976 0.919918 90.4166 0.677614C91.3774 0.355336 92.4146 0.339008 93.3851 0.630924C94.3556 0.922841 95.2117 1.50864 95.8354 2.30754C95.9254 1.85756 96.0354 1.47754 96.0853 1.07756C96.1353 0.677577 96.2453 0.747618 96.4853 0.747618C97.3051 0.747618 98.1149 0.747618 98.9247 0.747618C99.2547 0.747618 99.3146 0.857576 99.3146 1.14756C99.3146 3.14747 99.3146 5.21735 99.3146 7.25726C99.3146 9.29716 99.3146 11.4171 99.3146 13.497C99.3146 13.947 99.1847 14.047 98.7648 14.027C98.0349 14.027 97.2951 14.027 96.5652 14.027C96.2653 14.027 96.1053 13.9569 96.0453 13.647C95.9854 13.337 95.8454 13.047 95.7354 12.657ZM92.2662 10.9571C92.752 10.9881 93.2391 10.9201 93.6978 10.7569C94.1565 10.5937 94.5772 10.3389 94.9343 10.008C95.2914 9.67713 95.5775 9.27699 95.7752 8.83201C95.9728 8.38703 96.0779 7.90654 96.084 7.41966C96.0901 6.93279 95.9971 6.44973 95.8107 5.99993C95.6243 5.55013 95.3483 5.14298 94.9996 4.80321C94.6509 4.46344 94.2367 4.19814 93.7823 4.02352C93.3278 3.8489 92.8426 3.7686 92.3561 3.78745C91.3767 3.76869 90.4298 4.13925 89.7232 4.81786C89.0166 5.49647 88.608 6.42771 88.587 7.40727C88.608 8.36565 89.0061 9.27702 89.695 9.94353C90.3838 10.61 91.3078 10.9779 92.2662 10.9671V10.9571Z" fill="#3D5CAA"/>
<path opacity="0.57" d="M66.2318 8.3972C66.3825 9.11967 66.7629 9.774 67.3161 10.2624C67.8693 10.7508 68.5657 11.0471 69.3011 11.1071C69.9766 11.2134 70.6676 11.1563 71.3165 10.9406C71.9653 10.7249 72.553 10.3568 73.0303 9.86717C73.1503 9.73717 73.2203 9.71717 73.3703 9.86717C74.0101 10.3871 74.66 10.8671 75.3198 11.4071C75.6098 11.6271 75.4198 11.777 75.3198 11.937C74.3658 13.0527 73.068 13.8196 71.6306 14.117C70.144 14.4793 68.5808 14.3597 67.1665 13.7755C65.7523 13.1914 64.5602 12.173 63.7623 10.8671C63.2175 9.93241 62.9004 8.88248 62.8367 7.80238C62.7731 6.72229 62.9646 5.64238 63.3959 4.65013C63.8272 3.65788 64.4861 2.78115 65.3193 2.09099C66.1524 1.40082 67.1363 0.916649 68.1914 0.677603C69.2518 0.429941 70.3562 0.441816 71.411 0.712208C72.4658 0.9826 73.4398 1.50349 74.2504 2.23075C75.0609 2.95801 75.6841 3.87013 76.0669 4.88968C76.4498 5.90923 76.581 7.0061 76.4496 8.08722C76.4496 8.42721 76.2496 8.43718 75.9897 8.43718H66.2618L66.2318 8.3972ZM69.6511 5.96733H72.1405C72.4005 5.96733 72.7704 6.0973 72.8903 5.88731C73.0103 5.67732 72.8004 5.28738 72.6204 5.04739C72.2818 4.53358 71.807 4.12403 71.2491 3.86446C70.6912 3.60489 70.0722 3.50549 69.4611 3.57743C68.8206 3.60847 68.2012 3.81649 67.6717 4.17835C67.1423 4.54021 66.7234 5.04176 66.4617 5.62732C66.3318 5.8873 66.4017 5.95732 66.6717 5.95732L69.6511 5.96733Z" fill="#3D5CAA"/>
<path opacity="0.57" d="M21.1415 14.2469C19.3395 14.3456 17.5691 13.7443 16.1998 12.5686C14.8305 11.3929 13.9683 9.73355 13.7931 7.93711C13.6336 6.51811 13.905 5.084 14.572 3.82146C15.239 2.55893 16.2706 1.52648 17.5326 0.858653C18.7945 0.190828 20.2282 -0.0814453 21.6471 0.0772572C23.0659 0.23596 24.4042 0.818301 25.4874 1.74844C26.5707 2.67858 27.3488 3.91345 27.7205 5.29216C28.0921 6.67087 28.04 8.12953 27.5711 9.47824C27.1021 10.8269 26.238 12.0031 25.0912 12.8537C23.9444 13.7042 22.568 14.1897 21.1415 14.2469ZM20.8116 10.957C21.5167 10.9471 22.2032 10.7296 22.7855 10.3318C23.3678 9.93403 23.82 9.37351 24.0857 8.72021C24.3515 8.06692 24.4189 7.34981 24.2796 6.65842C24.1403 5.96704 23.8005 5.33204 23.3025 4.83264C22.8046 4.33325 22.1706 3.9916 21.4797 3.85039C20.7888 3.70918 20.0717 3.77465 19.4177 4.03862C18.7638 4.30258 18.2022 4.75334 17.8028 5.33463C17.4035 5.91593 17.1842 6.60202 17.1723 7.3072C17.1826 8.2712 17.5688 9.1931 18.2485 9.87665C18.9282 10.5602 19.8478 10.9514 20.8116 10.967V10.957Z" fill="#3D5CAA"/>
<path opacity="0.57" d="M38.1479 12.5271C37.5819 13.3554 36.7255 13.9407 35.7484 14.167C32.0592 14.987 29.3398 12.9271 29.2098 9.38725C29.1098 6.61738 29.2098 3.84751 29.2098 1.07765C29.2098 0.837657 29.2798 0.747705 29.5297 0.747705C30.4395 0.747705 31.3493 0.747705 32.2591 0.747705C32.6291 0.747705 32.639 0.907649 32.639 1.19764C32.639 3.50752 32.639 5.82743 32.639 8.14731C32.6273 8.59934 32.6812 9.05071 32.799 9.48728C32.9178 9.93605 33.175 10.336 33.5339 10.6304C33.8928 10.9247 34.3353 11.0985 34.7986 11.1272C35.3713 11.2086 35.9553 11.1468 36.4982 10.9472C37.0241 10.7305 37.4674 10.3521 37.7639 9.86671C38.0605 9.38134 38.195 8.81423 38.1479 8.24735C38.1479 5.90746 38.1479 3.57757 38.1479 1.24768C38.1479 0.8677 38.2278 0.727706 38.6278 0.747705C39.5076 0.747705 40.3874 0.747705 41.2572 0.747705C41.5371 0.747705 41.6371 0.817697 41.6371 1.11768C41.6371 5.29748 41.6371 9.47392 41.6371 13.6471C41.6371 13.937 41.5471 14.027 41.2572 14.027C40.3374 14.027 39.4176 14.027 38.4878 14.027C38.2078 14.027 38.1379 13.9271 38.1479 13.6671C38.1578 13.4071 38.1479 12.9671 38.1479 12.5271Z" fill="#3D5CAA"/>
<path opacity="0.57" d="M56.5538 14.2569C55.0937 14.3316 53.643 13.9845 52.3748 13.257C51.6597 12.8041 51.0741 12.1737 50.6751 11.4271C50.5551 11.2071 50.5451 11.0871 50.8051 10.9571C51.6549 10.5371 52.5047 10.0971 53.3445 9.64716C53.5345 9.53717 53.6245 9.55715 53.7344 9.75714C54.1329 10.3803 54.728 10.8526 55.4253 11.0989C56.1226 11.3453 56.8822 11.3517 57.5836 11.1171C57.7806 11.0951 57.9647 11.0087 58.1076 10.8713C58.2504 10.7339 58.3439 10.5531 58.3735 10.3572C58.4038 10.1495 58.363 9.93765 58.2577 9.7561C58.1525 9.57456 57.9889 9.43398 57.7936 9.3572C57.1148 9.03594 56.3998 8.79755 55.664 8.64721C54.9087 8.46092 54.1697 8.21346 53.4545 7.90725C52.7623 7.66341 52.1645 7.20748 51.7463 6.60428C51.3281 6.00107 51.1107 5.28133 51.125 4.54743C51.0797 3.78774 51.2798 3.03358 51.6956 2.39623C52.1114 1.75888 52.721 1.27204 53.4345 1.00756C54.5813 0.447774 55.8647 0.229344 57.132 0.378257C58.3993 0.52717 59.5972 1.03718 60.583 1.84755C60.9581 2.17255 61.2847 2.54971 61.5528 2.96749C61.7327 3.20748 61.6627 3.29749 61.4328 3.41748C60.603 3.83746 59.7732 4.26743 58.9433 4.7174C58.7534 4.8274 58.6634 4.78743 58.5434 4.61743C58.225 4.1399 57.7617 3.77723 57.2218 3.58282C56.6818 3.3884 56.0937 3.37249 55.5441 3.53747C55.3485 3.56158 55.1656 3.64723 55.0219 3.78203C54.8781 3.91682 54.7809 4.09379 54.7442 4.28743C54.7148 4.47698 54.7489 4.67092 54.8411 4.8391C54.9333 5.00729 55.0785 5.14028 55.2541 5.21738C55.8624 5.5308 56.5121 5.75635 57.1837 5.88733C57.9749 6.07336 58.7504 6.32075 59.5032 6.62729C60.2631 6.87215 60.9214 7.36015 61.3767 8.01608C61.8319 8.672 62.0589 9.45945 62.0227 10.2571C62.0065 11.0867 61.722 11.8887 61.212 12.543C60.7019 13.1974 59.9937 13.6689 59.1933 13.8869C58.8534 13.9969 58.5034 14.077 58.1935 14.157C57.6508 14.2371 57.1022 14.2705 56.5538 14.2569Z" fill="#3D5CAA"/>
<path opacity="0.57" d="M7.17451 14.2667C6.23351 14.283 5.29891 14.1094 4.42656 13.7561C3.55422 13.4028 2.76206 12.8772 2.09751 12.2107C1.43295 11.5441 0.909636 10.7504 0.558869 9.8769C0.208101 9.00342 0.0370831 8.06814 0.0560475 7.12703C0.13512 5.55522 0.741499 4.05594 1.77729 2.87119C2.81309 1.68645 4.21788 0.885417 5.76484 0.597376C7.08522 0.326051 8.4555 0.435793 9.71589 0.913828C10.9763 1.39186 12.0748 2.2185 12.8833 3.29726C13.0633 3.51725 13.1232 3.63725 12.8033 3.80724C12.0135 4.23722 11.2337 4.7072 10.4538 5.17717C10.2339 5.30717 10.1239 5.25712 9.96391 5.06713C9.50655 4.53362 8.9071 4.14104 8.23531 3.93505C7.56352 3.72905 6.84704 3.71811 6.16929 3.90355C5.49154 4.089 4.8804 4.4632 4.40701 4.98254C3.93361 5.50188 3.61744 6.14499 3.49531 6.83707C3.3728 7.79211 3.63154 8.757 4.21543 9.52255C4.79932 10.2881 5.66132 10.7927 6.61463 10.9269C7.26108 11.0305 7.92359 10.9547 8.52999 10.7079C9.13639 10.461 9.66346 10.0526 10.0539 9.52694C10.2338 9.29695 10.3638 9.31693 10.5838 9.44693C11.3436 9.91691 12.1035 10.3769 12.8833 10.8169C13.1732 10.9669 13.1232 11.0869 12.9633 11.3069C12.2965 12.2181 11.4256 12.9605 10.4204 13.4744C9.41514 13.9884 8.30347 14.2598 7.17451 14.2667Z" fill="#3D5CAA"/>
<path opacity="0.57" d="M81.3086 2.26737C81.7077 1.70249 82.2344 1.2397 82.8458 0.916541C83.4573 0.593384 84.1363 0.418987 84.8278 0.407471C85.1177 0.407471 85.2377 0.407446 85.1677 0.75743C84.9878 1.59739 84.8178 2.43737 84.6578 3.27733C84.6078 3.50732 84.5379 3.59733 84.2679 3.60733C83.8632 3.56299 83.4537 3.61006 83.0697 3.74514C82.6856 3.88022 82.3368 4.09982 82.0489 4.38775C81.761 4.67567 81.5414 5.02457 81.4064 5.4087C81.2713 5.79282 81.2242 6.20242 81.2686 6.60719C81.2686 8.92708 81.2686 11.2603 81.2686 13.6069C81.2686 13.9768 81.1786 14.0868 80.8087 14.0768C79.9489 14.0768 79.0791 14.0768 78.2192 14.0768C77.9093 14.0768 77.7893 14.0168 77.7893 13.6668C77.7893 9.51371 77.7893 5.3639 77.7893 1.21743C77.7893 0.887445 77.8793 0.787467 78.2092 0.797467C79.099 0.797467 79.9888 0.797467 80.8886 0.797467C81.2086 0.797467 81.2886 0.907425 81.2686 1.19741C81.2486 1.4874 81.3086 1.79739 81.3086 2.26737Z" fill="#3D5CAA"/>
<path opacity="0.57" d="M46.556 2.09739C46.9863 1.59138 47.5166 1.17999 48.1137 0.889137C48.7108 0.598288 49.3617 0.434285 50.0253 0.407471C50.3852 0.407471 50.4852 0.407454 50.3952 0.827434C50.1952 1.64739 50.0353 2.4774 49.8953 3.30736C49.8953 3.55734 49.7553 3.59732 49.5254 3.59732C49.1242 3.55691 48.719 3.60728 48.3399 3.74465C47.9607 3.88203 47.6173 4.10287 47.3351 4.39092C47.0528 4.67897 46.839 5.0268 46.7093 5.4087C46.5796 5.79059 46.5375 6.19679 46.586 6.59718C46.586 8.92706 46.586 11.257 46.586 13.5968C46.586 13.9468 46.506 14.0868 46.1261 14.0768C45.2663 14.0768 44.4065 14.0768 43.5467 14.0768C43.1867 14.0768 43.0968 13.9768 43.1067 13.6268C43.1067 9.80699 43.1067 5.98721 43.1067 2.1674C43.1067 1.81741 43.1067 1.47743 43.1067 1.16744C43.1067 0.857459 43.1567 0.837443 43.4167 0.837443C44.3565 0.837443 45.2963 0.837443 46.2361 0.837443C46.516 0.837443 46.586 0.947423 46.576 1.19741C46.566 1.4474 46.556 1.76741 46.556 2.09739Z" fill="#3D5CAA"/>
</g>
</svg>
