<svg width="105" height="49" viewBox="0 0 105 49" fill="none" xmlns="http://www.w3.org/2000/svg">
<g opacity="0.57">
<path opacity="0.57" d="M13.3441 19.7965C11.9754 20.2577 10.5393 20.4875 9.09504 20.4765C7.66178 20.5055 6.24564 20.1609 4.98593 19.4765C3.78821 18.8072 2.81184 17.8029 2.17654 16.5867C1.45936 15.1965 1.09539 13.6511 1.11676 12.0869V10.087C1.07044 8.58494 1.35013 7.09071 1.93658 5.70717C2.48807 4.34578 3.44708 3.18834 4.68211 2.39349C5.91715 1.59863 7.36777 1.20527 8.83509 1.26738C10.7002 1.16301 12.5431 1.71489 14.044 2.8273C14.6989 3.39839 15.2321 4.09562 15.6117 4.87732C15.9913 5.65902 16.2096 6.50915 16.2535 7.37707H12.8042C12.7143 6.41683 12.2854 5.52003 11.5945 4.84723C10.8447 4.2683 9.91061 3.98057 8.96507 4.03727C8.35478 4.01844 7.74964 4.15434 7.20599 4.43233C6.66234 4.71032 6.19785 5.12133 5.85574 5.62716C5.03327 6.9453 4.63864 8.48568 4.72598 10.037V11.6369C4.61659 13.2381 5.03065 14.8314 5.90573 16.1767C6.30413 16.7003 6.82553 17.1175 7.42371 17.3914C8.02189 17.6652 8.67837 17.7872 9.33499 17.7466C9.9349 17.8135 10.5421 17.7594 11.1208 17.5876C11.6995 17.4159 12.2379 17.13 12.7043 16.7467V13.1368H8.90508V10.6869H16.2735V17.9666C15.4756 18.8244 14.4649 19.4557 13.3441 19.7965Z" fill="#3D5CAA"/>
<path opacity="0.57" d="M21.7223 19.6663C20.7608 19.1199 19.9739 18.312 19.4528 17.3364C18.8731 16.2453 18.5613 15.032 18.543 13.7966V13.0866C18.4914 11.8731 18.7242 10.6643 19.2229 9.55683C19.7 8.50354 20.4795 7.61591 21.4624 7.00691C22.5489 6.39397 23.774 6.06864 25.0214 6.06164C26.2689 6.05464 27.4975 6.36623 28.5908 6.96693C29.5818 7.55419 30.378 8.42011 30.8803 9.4568C31.4387 10.6227 31.7128 11.9043 31.6802 13.1966V13.4566C31.713 14.7425 31.4388 16.0178 30.8803 17.1765C30.3827 18.2086 29.5846 19.0661 28.5908 19.6363C27.5374 20.2332 26.342 20.5338 25.1316 20.5063C23.9412 20.5297 22.7656 20.2401 21.7223 19.6663ZM22.7821 16.6665C23.0401 17.0347 23.3873 17.3315 23.7912 17.5291C24.1951 17.7267 24.6425 17.8187 25.0916 17.7964C25.539 17.8192 25.9851 17.7306 26.3898 17.5386C26.7946 17.3467 27.1455 17.0573 27.4111 16.6964C28.0048 15.7649 28.2883 14.6692 28.2209 13.5666V13.0666C28.2932 11.9288 28.0103 10.7967 27.4111 9.82678C27.1361 9.4884 26.7907 9.21409 26.3989 9.02286C26.0071 8.83164 25.5783 8.7281 25.1424 8.71953C24.7066 8.71096 24.2741 8.79756 23.875 8.97324C23.476 9.14893 23.1201 9.40951 22.8321 9.73682C22.23 10.5922 21.9245 11.6213 21.9623 12.6667V13.4066C21.8824 14.5591 22.1694 15.7072 22.7821 16.6864V16.6665Z" fill="#3D5CAA"/>
<path opacity="0.57" d="M36.4291 19.6664C35.4676 19.12 34.6806 18.3121 34.1596 17.3365C33.5845 16.2436 33.273 15.0314 33.2498 13.7967V13.0867C33.1981 11.8732 33.431 10.6644 33.9296 9.55689C34.4098 8.50556 35.1887 7.61873 36.1691 7.00696C37.2483 6.39656 38.4646 6.06997 39.7044 6.05773C40.9441 6.04549 42.1666 6.34798 43.2576 6.93696C44.2508 7.52141 45.0478 8.38817 45.5471 9.42689C46.1089 10.5919 46.3864 11.8736 46.357 13.1667V13.4267C46.3867 14.7134 46.1091 15.9886 45.5471 17.1465C45.0522 18.1805 44.2534 19.0387 43.2576 19.6064C42.2041 20.2033 41.0088 20.5039 39.7984 20.4764C38.6242 20.502 37.4634 20.2229 36.4291 19.6664ZM37.4889 16.6665C37.7469 17.0348 38.0941 17.3316 38.498 17.5292C38.9019 17.7268 39.3493 17.8188 39.7984 17.7965C40.2459 17.8201 40.6923 17.7319 41.0972 17.5399C41.5021 17.3479 41.8529 17.058 42.1179 16.6965C42.715 15.7661 43.0021 14.6704 42.9377 13.5666V13.0667C43.0077 11.9278 42.7211 10.7953 42.1179 9.82684C41.8429 9.48846 41.4975 9.21415 41.1057 9.02292C40.7139 8.83169 40.2851 8.72816 39.8492 8.71959C39.4134 8.71102 38.9808 8.79762 38.5818 8.9733C38.1828 9.14899 37.8269 9.40957 37.5388 9.73688C36.9459 10.5967 36.6413 11.6226 36.669 12.6667V13.4067C36.5892 14.5591 36.8761 15.7072 37.4889 16.6865V16.6665Z" fill="#3D5CAA"/>
<path opacity="0.57" d="M51.246 24.8663C50.4032 24.4977 49.6496 23.952 49.0364 23.2663L50.4361 21.3764C50.9037 21.8499 51.4522 22.236 52.0558 22.5163C52.6264 22.777 53.2481 22.9069 53.8754 22.8963C54.328 22.9306 54.7827 22.8691 55.21 22.7157C55.6372 22.5624 56.0273 22.3206 56.3548 22.0064C56.9595 21.2766 57.2603 20.342 57.1947 19.3965V18.4766C56.801 19.0457 56.2681 19.5045 55.6467 19.8091C55.0254 20.1137 54.3364 20.2539 53.6454 20.2165C52.6032 20.2405 51.5782 19.9476 50.7061 19.3765C49.8379 18.7697 49.167 17.9213 48.7765 16.9366C48.292 15.7472 48.0572 14.4708 48.0866 13.1868V12.9668C48.0575 11.7087 48.2925 10.4586 48.7765 9.297C49.1711 8.31701 49.8502 7.47763 50.7261 6.88708C51.5921 6.31868 52.6098 6.02588 53.6454 6.04716C54.3744 6.00294 55.1025 6.14604 55.7605 6.46285C56.4185 6.77966 56.9845 7.25962 57.4046 7.85707L57.5146 6.27713H60.6439V19.4365C60.6188 20.2969 60.4323 21.1449 60.094 21.9363C59.6756 22.9168 58.9808 23.7542 58.0945 24.3463C57.0677 24.9354 55.921 25.2846 54.7402 25.3677C53.5594 25.4508 52.3751 25.2657 51.2759 24.8262L51.246 24.8663ZM52.3057 16.6666C52.5418 17.0259 52.8663 17.3185 53.2479 17.5164C53.6295 17.7143 54.0556 17.8107 54.4852 17.7966C55.0383 17.8437 55.5928 17.7229 56.0761 17.45C56.5595 17.1771 56.9493 16.7646 57.1947 16.2666V10.4769C56.9534 9.98225 56.5687 9.57172 56.0908 9.29883C55.6129 9.02594 55.0638 8.90331 54.5152 8.94698C54.0748 8.93289 53.6384 9.03554 53.2503 9.24451C52.8623 9.45349 52.5364 9.76137 52.3057 10.1369C51.7229 11.1495 51.4484 12.3103 51.5159 13.4768C51.4486 14.5957 51.7242 15.7085 52.3057 16.6666Z" fill="#3D5CAA"/>
<path opacity="0.57" d="M67.2232 20.2173H63.8032V0.717285H67.2232V20.2173Z" fill="#3D5CAA"/>
<path opacity="0.57" d="M73.0712 19.5963C72.0433 19.0397 71.1967 18.1998 70.6317 17.1764C70.0271 16.0851 69.7202 14.854 69.7419 13.6066V13.1865C69.7198 11.9199 69.9865 10.6649 70.5218 9.51673C71.0116 8.47125 71.7927 7.58937 72.7713 6.97687C73.8105 6.34915 75.0068 6.0301 76.2205 6.05693C77.042 6.01649 77.8624 6.15466 78.6253 6.46194C79.3882 6.76922 80.0754 7.23828 80.6396 7.83681C81.7897 9.19347 82.3733 10.941 82.2692 12.7166V14.1665H73.2212V14.3965C73.299 15.3393 73.7185 16.2212 74.4009 16.8764C75.0689 17.4865 75.946 17.816 76.8504 17.7964C77.5364 17.8138 78.2182 17.6843 78.85 17.4164C79.419 17.1423 79.9182 16.7422 80.3096 16.2464L81.8893 18.0863C81.3222 18.846 80.5678 19.4455 79.6998 19.8262C78.6478 20.2781 77.5089 20.4918 76.3648 20.452C75.2206 20.4122 74.0993 20.12 73.0812 19.5963H73.0712ZM78.93 12.0066V11.6866C78.9691 10.9005 78.7163 10.1277 78.2201 9.51673C77.9641 9.24716 77.6529 9.03611 77.3078 8.89804C76.9627 8.75997 76.5918 8.69814 76.2205 8.71678C75.8436 8.70416 75.4685 8.7757 75.1226 8.92618C74.7768 9.07666 74.4687 9.3023 74.221 9.58673C73.6537 10.2755 73.3055 11.1182 73.2212 12.0066H78.93Z" fill="#3D5CAA"/>
</g>
<path opacity="0.37" d="M2.16273 41.6362V30.1394H5.52609C6.26991 30.1394 7.02451 30.3226 7.78989 30.6891C8.55527 31.0449 9.19668 31.6162 9.71412 32.4032C10.2316 33.1901 10.4903 34.1926 10.4903 35.4108V36.4133C10.4903 37.4482 10.2801 38.3645 9.85965 39.1622C9.43923 39.9492 8.85711 40.5582 8.11329 40.9894C7.36947 41.4206 6.52863 41.6362 5.59077 41.6362H2.16273ZM5.54226 40.6175C6.1675 40.6175 6.75501 40.4774 7.30479 40.1971C7.85457 39.906 8.30194 39.4479 8.6469 38.8227C8.99186 38.1974 9.16434 37.4051 9.16434 36.4457V35.2976C9.16434 34.6616 9.05654 34.0417 8.84094 33.438C8.62534 32.8236 8.24804 32.3008 7.70904 31.8695C7.18082 31.4383 6.46934 31.2012 5.5746 31.1581H3.45633V40.6175H5.54226ZM13.8757 41.6362H12.6145V33.0985H13.8757V41.6362ZM12.4204 30.6406C12.4204 30.425 12.4959 30.2472 12.6468 30.107C12.7977 29.9561 12.9918 29.8806 13.2289 29.8806C13.4661 29.8806 13.6601 29.9561 13.8111 30.107C13.9728 30.2472 14.0536 30.425 14.0536 30.6406C14.0536 30.8562 13.9728 31.0341 13.8111 31.1742C13.6601 31.3036 13.4661 31.3683 13.2289 31.3683C12.9918 31.3683 12.7977 31.3036 12.6468 31.1742C12.4959 31.0341 12.4204 30.8562 12.4204 30.6406ZM19.3484 44.9511C18.7771 44.9511 18.2435 44.8271 17.7476 44.5792C17.2625 44.342 16.8313 43.9971 16.454 43.5443L17.0038 42.849C17.3379 43.2263 17.6883 43.512 18.0548 43.706C18.4213 43.9 18.8364 43.9971 19.2999 43.9971C20.0653 43.9971 20.6582 43.7599 21.0786 43.2856C21.5098 42.822 21.7254 42.1806 21.7254 41.3613V40.2456C21.4775 40.7092 21.1325 41.0649 20.6905 41.3128C20.2485 41.55 19.7365 41.6686 19.1544 41.6686C18.1303 41.6686 17.3218 41.2913 16.7289 40.5367C16.1467 39.7821 15.8557 38.7256 15.8557 37.3674V37.238C15.8557 35.9013 16.1521 34.8556 16.745 34.101C17.3379 33.3464 18.141 32.9691 19.1544 32.9691C19.7581 32.9691 20.2863 33.0931 20.739 33.341C21.2026 33.589 21.5583 33.9501 21.8063 34.4244L21.8386 33.0985H23.0028V41.329C23.0028 41.9327 22.8789 42.5094 22.6309 43.0592C22.383 43.609 21.9841 44.0617 21.4343 44.4175C20.8953 44.7732 20.2 44.9511 19.3484 44.9511ZM17.1331 37.432C17.1331 38.4885 17.3325 39.3078 17.7314 39.8899C18.141 40.472 18.7124 40.7631 19.4454 40.7631C19.9952 40.7631 20.4641 40.6391 20.8522 40.3911C21.2403 40.1324 21.5314 39.7659 21.7254 39.2916V35.5078C21.5314 35.0227 21.2403 34.6562 20.8522 34.4082C20.4641 34.1603 20.0006 34.0363 19.4616 34.0363C18.7286 34.0363 18.1572 34.3328 17.7476 34.9257C17.3379 35.5186 17.1331 36.354 17.1331 37.432ZM26.6349 41.6362H25.3736V33.0985H26.6349V41.6362ZM25.1796 30.6406C25.1796 30.425 25.2551 30.2472 25.406 30.107C25.5569 29.9561 25.7509 29.8806 25.9881 29.8806C26.2253 29.8806 26.4193 29.9561 26.5702 30.107C26.7319 30.2472 26.8128 30.425 26.8128 30.6406C26.8128 30.8562 26.7319 31.0341 26.5702 31.1742C26.4193 31.3036 26.2253 31.3683 25.9881 31.3683C25.7509 31.3683 25.5569 31.3036 25.406 31.1742C25.2551 31.0341 25.1796 30.8562 25.1796 30.6406ZM30.7493 30.8023V33.0823H32.4956V33.9716H30.7493V39.2754C30.7493 39.6958 30.8032 40.0246 30.911 40.2618C31.0296 40.4882 31.2236 40.6337 31.4931 40.6984C31.644 40.7415 31.8057 40.7631 31.9782 40.7631C32.2261 40.7631 32.4525 40.7307 32.6573 40.666L32.6897 41.5877C32.3878 41.6955 32.0159 41.7494 31.5739 41.7494C30.8517 41.7494 30.3235 41.5662 29.9893 41.1996C29.6551 40.8223 29.488 40.2348 29.488 39.4371V33.9716H28.0974V33.0823H29.488V30.8023H30.7493ZM39.5809 41.6362C39.4515 41.3452 39.3761 40.9248 39.3545 40.375C38.7185 41.3236 37.7537 41.7979 36.4601 41.7979C35.6623 41.7979 35.0102 41.5716 34.5035 41.1188C33.9968 40.666 33.7435 40.0893 33.7435 39.3886C33.7435 38.5478 34.0723 37.9064 34.7299 37.4644C35.3982 37.0116 36.3469 36.7852 37.5758 36.7852H39.306V35.7504C39.306 35.1467 39.1281 34.6777 38.7724 34.3436C38.4274 34.0094 37.9315 33.8423 37.2847 33.8423C36.6811 33.8423 36.1852 34.004 35.7971 34.3274C35.409 34.6508 35.215 35.055 35.215 35.5401H33.9537C33.9537 35.055 34.0992 34.6131 34.3903 34.2142C34.6921 33.8153 35.0964 33.5027 35.6031 33.2763C36.1205 33.05 36.6972 32.9368 37.3332 32.9368C38.325 32.9368 39.1066 33.1847 39.6779 33.6806C40.2492 34.1657 40.5403 34.8394 40.5511 35.7018V39.6797C40.5619 40.1432 40.5834 40.5205 40.6158 40.8116C40.6589 41.1026 40.7289 41.3506 40.826 41.5554V41.6362H39.5809ZM35.0048 39.3239C35.0048 39.7875 35.1557 40.1648 35.4575 40.4558C35.7701 40.7361 36.1852 40.8762 36.7026 40.8762C37.3171 40.8762 37.8291 40.7684 38.2388 40.5528C38.6484 40.3265 39.0041 39.9815 39.306 39.518V37.4967H37.689C36.8697 37.4967 36.2175 37.6476 35.7324 37.9495C35.2473 38.2405 35.0048 38.6987 35.0048 39.3239ZM44.2103 41.6362H42.949V29.5896H44.2103V41.6362ZM63.6485 40.3265C63.3036 40.7684 62.7484 41.1242 61.983 41.3937C61.2284 41.6632 60.3984 41.7979 59.4928 41.7979C58.6197 41.7979 57.8327 41.5985 57.132 41.1996C56.4313 40.8008 55.8708 40.2241 55.4503 39.4695C55.0407 38.7041 54.8359 37.7932 54.8359 36.7367L54.8197 35.1197C54.8089 34.1819 54.976 33.3249 55.321 32.5487C55.6767 31.7617 56.1942 31.1365 56.8733 30.673C57.5632 30.2094 58.3879 29.9777 59.3473 29.9777C60.5978 29.9777 61.5949 30.2849 62.3388 30.8993C63.0934 31.5138 63.5246 32.3762 63.6324 33.4866H62.3711C62.2633 32.6673 61.9507 32.0474 61.4332 31.627C60.9266 31.2066 60.242 30.9964 59.3796 30.9964C58.7328 30.9964 58.1615 31.1688 57.6656 31.5138C57.1805 31.848 56.8032 32.3277 56.5337 32.9529C56.275 33.5782 56.1456 34.3058 56.1456 35.1359V36.5427C56.1456 37.8578 56.4529 38.8927 57.0673 39.6473C57.6818 40.4019 58.5119 40.7792 59.5575 40.7792C60.1828 40.7792 60.7433 40.6984 61.2392 40.5367C61.7351 40.3642 62.1016 40.1378 62.3388 39.8575V37.0116H59.4282V36.0899H63.6485V40.3265ZM71.2576 41.6362C71.1283 41.3452 71.0528 40.9248 71.0313 40.375C70.3952 41.3236 69.4304 41.7979 68.1368 41.7979C67.3391 41.7979 66.6869 41.5716 66.1803 41.1188C65.6736 40.666 65.4203 40.0893 65.4203 39.3886C65.4203 38.5478 65.7491 37.9064 66.4066 37.4644C67.075 37.0116 68.0236 36.7852 69.2526 36.7852H70.9828V35.7504C70.9828 35.1467 70.8049 34.6777 70.4491 34.3436C70.1042 34.0094 69.6083 33.8423 68.9615 33.8423C68.3578 33.8423 67.8619 34.004 67.4739 34.3274C67.0858 34.6508 66.8917 35.055 66.8917 35.5401H65.6305C65.6305 35.055 65.776 34.6131 66.0671 34.2142C66.3689 33.8153 66.7732 33.5027 67.2798 33.2763C67.7973 33.05 68.374 32.9368 69.01 32.9368C70.0018 32.9368 70.7833 33.1847 71.3547 33.6806C71.926 34.1657 72.2171 34.8394 72.2278 35.7018V39.6797C72.2386 40.1432 72.2602 40.5205 72.2925 40.8116C72.3356 41.1026 72.4057 41.3506 72.5027 41.5554V41.6362H71.2576ZM66.6815 39.3239C66.6815 39.7875 66.8325 40.1648 67.1343 40.4558C67.4469 40.7361 67.8619 40.8762 68.3794 40.8762C68.9938 40.8762 69.5059 40.7684 69.9155 40.5528C70.3252 40.3265 70.6809 39.9815 70.9828 39.518V37.4967H69.3658C68.5465 37.4967 67.8943 37.6476 67.4092 37.9495C66.9241 38.2405 66.6815 38.6987 66.6815 39.3239ZM74.5288 33.0985H75.7092L75.7415 34.764C75.9679 34.2034 76.2913 33.7614 76.7117 33.438C77.1429 33.1039 77.6388 32.9368 78.1994 32.9368C78.3395 32.9368 78.5551 32.9637 78.8462 33.0176L78.7977 34.198C78.6252 34.1549 78.3988 34.1334 78.1185 34.1334C77.558 34.1334 77.0783 34.2843 76.6794 34.5861C76.2805 34.8772 75.9841 35.3192 75.79 35.9121V41.6362H74.5288V33.0985ZM85.1853 41.6362C85.056 41.3452 84.9805 40.9248 84.9589 40.375C84.3229 41.3236 83.3581 41.7979 82.0645 41.7979C81.2668 41.7979 80.6146 41.5716 80.1079 41.1188C79.6013 40.666 79.348 40.0893 79.348 39.3886C79.348 38.5478 79.6767 37.9064 80.3343 37.4644C81.0027 37.0116 81.9513 36.7852 83.1802 36.7852H84.9104V35.7504C84.9104 35.1467 84.7326 34.6777 84.3768 34.3436C84.0319 34.0094 83.536 33.8423 82.8892 33.8423C82.2855 33.8423 81.7896 34.004 81.4015 34.3274C81.0135 34.6508 80.8194 35.055 80.8194 35.5401H79.5582C79.5582 35.055 79.7037 34.6131 79.9948 34.2142C80.2966 33.8153 80.7008 33.5027 81.2075 33.2763C81.7249 33.05 82.3017 32.9368 82.9377 32.9368C83.9295 32.9368 84.711 33.1847 85.2823 33.6806C85.8537 34.1657 86.1447 34.8394 86.1555 35.7018V39.6797C86.1663 40.1432 86.1879 40.5205 86.2202 40.8116C86.2633 41.1026 86.3334 41.3506 86.4304 41.5554V41.6362H85.1853ZM80.6092 39.3239C80.6092 39.7875 80.7601 40.1648 81.062 40.4558C81.3746 40.7361 81.7896 40.8762 82.3071 40.8762C82.9215 40.8762 83.4336 40.7684 83.8432 40.5528C84.2529 40.3265 84.6086 39.9815 84.9104 39.518V37.4967H83.2934C82.4742 37.4967 81.822 37.6476 81.3369 37.9495C80.8518 38.2405 80.6092 38.6987 80.6092 39.3239ZM91.5449 44.9511C90.9736 44.9511 90.44 44.8271 89.9441 44.5792C89.459 44.342 89.0278 43.9971 88.6505 43.5443L89.2003 42.849C89.5345 43.2263 89.8848 43.512 90.2513 43.706C90.6179 43.9 91.0329 43.9971 91.4964 43.9971C92.2618 43.9971 92.8547 43.7599 93.2751 43.2856C93.7063 42.822 93.9219 42.1806 93.9219 41.3613V40.2456C93.674 40.7092 93.329 41.0649 92.887 41.3128C92.4451 41.55 91.933 41.6686 91.3509 41.6686C90.3268 41.6686 89.5183 41.2913 88.9254 40.5367C88.3433 39.7821 88.0522 38.7256 88.0522 37.3674V37.238C88.0522 35.9013 88.3487 34.8556 88.9416 34.101C89.5345 33.3464 90.3376 32.9691 91.3509 32.9691C91.9546 32.9691 92.4828 33.0931 92.9356 33.341C93.3991 33.589 93.7548 33.9501 94.0028 34.4244L94.0351 33.0985H95.1994V41.329C95.1994 41.9327 95.0754 42.5094 94.8274 43.0592C94.5795 43.609 94.1806 44.0617 93.6309 44.4175C93.0919 44.7732 92.3966 44.9511 91.5449 44.9511ZM89.3296 37.432C89.3296 38.4885 89.5291 39.3078 89.9279 39.8899C90.3376 40.472 90.9089 40.7631 91.642 40.7631C92.1917 40.7631 92.6607 40.6391 93.0487 40.3911C93.4368 40.1324 93.7279 39.7659 93.9219 39.2916V35.5078C93.7279 35.0227 93.4368 34.6562 93.0487 34.4082C92.6607 34.1603 92.1971 34.0363 91.6581 34.0363C90.9251 34.0363 90.3537 34.3328 89.9441 34.9257C89.5345 35.5186 89.3296 36.354 89.3296 37.432ZM100.934 41.7494C100.19 41.7494 99.5106 41.5769 98.8961 41.232C98.2816 40.8762 97.7965 40.3804 97.4408 39.7443C97.0958 39.1083 96.9234 38.3807 96.9234 37.5614V37.2542C96.9234 36.4672 97.0797 35.745 97.3923 35.0874C97.7049 34.4298 98.1469 33.907 98.7182 33.5189C99.3003 33.1308 99.9687 32.9368 100.723 32.9368C101.413 32.9368 102.017 33.0985 102.534 33.4219C103.063 33.7345 103.472 34.1872 103.763 34.7802C104.054 35.3623 104.2 36.0468 104.2 36.8337V37.4967H98.2008V37.8039C98.2331 38.3968 98.3787 38.9197 98.6374 39.3724C98.8961 39.8144 99.2303 40.1594 99.6399 40.4073C100.05 40.6445 100.497 40.7631 100.982 40.7631C101.532 40.7631 101.99 40.6768 102.356 40.5043C102.723 40.3211 103.046 40.0516 103.327 39.6958L103.941 40.3588C103.618 40.8116 103.197 41.1565 102.68 41.3937C102.173 41.6308 101.591 41.7494 100.934 41.7494ZM102.971 36.672V36.478C102.971 35.745 102.772 35.1359 102.373 34.6508C101.974 34.1657 101.419 33.9231 100.707 33.9231C100.028 33.9231 99.4674 34.1765 99.0255 34.6831C98.5835 35.1898 98.314 35.8528 98.217 36.672H102.971Z" fill="#3D5CAA"/>
</svg>
