<svg width="124" height="127" viewBox="0 0 124 127" fill="none" xmlns="http://www.w3.org/2000/svg">
<path d="M67.231 0.110543C73.9246 0.473192 80.5149 1.91998 86.7449 4.39446C93.673 7.19218 100.024 11.247 105.478 16.3544C105.519 16.3963 105.558 16.4458 105.603 16.4954C105.573 16.6974 105.397 16.7927 105.272 16.9146C99.5319 22.6621 93.7895 28.4058 88.0446 34.1456C87.9824 34.2002 87.9238 34.2587 87.8692 34.3209C87.6825 34.5763 87.5262 34.5077 87.3242 34.3209C86.4109 33.4555 85.4462 32.646 84.4352 31.8969C80.285 28.7845 75.472 26.6728 70.3715 25.7264C67.2896 25.1386 64.1453 24.9465 61.0147 25.1547C53.5155 25.6164 46.3462 28.4019 40.5023 33.1242C34.705 37.7013 30.3491 43.8515 27.9554 50.8392C27.9097 50.9726 27.8449 51.1021 27.7877 51.2203C27.5933 51.327 27.479 51.1783 27.3532 51.083C23.8671 48.3694 20.3747 45.6582 16.8759 42.9497L7.80879 35.9102C7.40125 35.6708 7.04714 35.3504 6.76831 34.9688C6.8331 34.2637 7.25234 33.7035 7.57249 33.1166C9.86147 28.8925 12.622 24.9416 15.8011 21.3395C19.1604 17.5376 22.9574 14.1461 27.1131 11.2357C32.2543 7.63257 37.9072 4.82158 43.8829 2.89664C47.704 1.64764 51.6403 0.783263 55.6331 0.316369C56.9807 0.160342 58.3357 0.0763604 59.6922 0.0648091H61.514C61.7275 0.0343186 61.9523 0.129585 62.1543 0H63.8885C64.2696 0.141019 64.6965 0.0266959 65.0966 0.0648091H66.6212C66.8256 0.0490786 67.0312 0.064498 67.231 0.110543Z" fill="#EA4435"/>
<path d="M65.5349 126.677C65.2506 126.635 64.9617 126.635 64.6774 126.677H61.5978C61.2725 126.637 60.9436 126.637 60.6183 126.677L57.7369 126.452C54.0015 126.161 50.3013 125.523 46.6841 124.546C38.2164 122.247 30.3213 118.207 23.5034 112.684C16.6856 107.161 11.0948 100.276 7.08839 92.4701C6.97118 92.3011 6.88832 92.1108 6.84448 91.9099C7.32471 91.2238 8.05647 90.8236 8.69296 90.3281C14.8241 85.564 20.9578 80.8011 27.094 76.0395C27.2693 75.9023 27.4294 75.7346 27.6847 75.7689C28.2564 77.2592 28.8014 78.7608 29.5065 80.1939C33.9086 89.1048 40.6241 95.5572 49.878 99.2771C54.194 100.992 58.8065 101.837 63.4501 101.762C68.7701 101.766 74.037 100.703 78.9393 98.6368C80.6717 97.8939 82.3392 97.0079 83.9245 95.988C84.0818 95.8567 84.2629 95.757 84.4581 95.6945C85.1136 95.8812 85.5481 96.3995 86.0588 96.7921C90.9805 100.603 95.8907 104.415 100.79 108.226C101.933 109.103 103.046 109.991 104.182 110.86C104.372 111.008 104.589 111.146 104.616 111.424C102.605 113.323 100.438 115.05 98.1369 116.584C92.2396 120.541 85.6631 123.376 78.7373 124.946C74.8267 125.861 70.8393 126.41 66.8269 126.585C66.3925 126.597 65.9656 126.642 65.5349 126.677Z" fill="#34A851"/>
<path d="M105.165 111.328C103.694 110.185 102.226 109.015 100.751 107.868C95.5248 103.802 90.2983 99.7369 85.0717 95.6715C85.0069 95.6181 84.9535 95.5572 84.8925 95.5C85.4032 95.1189 85.914 94.7377 86.4171 94.3566C91.9874 90.1569 95.8692 84.1008 97.3594 77.2857C97.3594 77.2247 97.3898 77.1676 97.3975 77.1066C97.4737 76.6492 97.447 76.6149 96.982 76.5997H64.1399C63.29 76.5997 63.3777 76.6873 63.3777 75.8374C63.3777 68.418 63.3777 60.9975 63.3777 53.5756C63.3777 53.4498 63.3777 53.3278 63.3777 53.1944C63.3548 52.9086 63.4653 52.7676 63.7588 52.8133C63.9023 52.8209 64.046 52.8209 64.1895 52.8133H122.194C123.196 52.8133 122.956 52.7027 123.112 53.6289C123.542 56.3755 123.815 59.1445 123.928 61.9223C123.993 63.5535 124.027 65.181 123.974 66.8046C123.869 70.6397 123.478 74.4617 122.804 78.2386C121.986 82.8018 120.681 87.2638 118.909 91.5476C116.401 97.6425 112.848 103.252 108.408 108.123C107.501 109.11 106.556 110.059 105.592 110.989C105.472 111.128 105.327 111.243 105.165 111.328Z" fill="#557DBF"/>
<path d="M27.8028 75.4793L17.9887 83.1019L7.20644 91.4868C7.0921 91.5745 6.96634 91.6469 6.84438 91.7269C6.10339 90.3711 5.44659 88.971 4.87773 87.5344C2.98441 83.0337 1.62592 78.3264 0.830117 73.5089C0.0948649 69.0748 -0.153076 64.5735 0.090721 60.0855C0.528202 51.5869 2.70353 43.2682 6.4823 35.6434C6.56522 35.4115 6.68631 35.1952 6.84057 35.0032C8.5023 36.28 10.164 37.553 11.822 38.8374C15.4961 41.6857 19.1663 44.534 22.8328 47.3823L27.7875 51.2393C27.4064 52.5847 26.9948 53.9073 26.6937 55.2832C25.8752 58.9648 25.6182 62.749 25.9314 66.5075C26.1692 69.421 26.7579 72.2952 27.6846 75.0677C27.7266 75.1896 27.7685 75.3345 27.8028 75.4793Z" fill="#F9BC15"/>
</svg>
