<svg width="98" height="29" viewBox="0 0 98 29" fill="none" xmlns="http://www.w3.org/2000/svg">
<path opacity="0.57" d="M33.5212 11.2374C33.7962 10.9861 34.0867 10.7523 34.391 10.5375C35.3616 9.90668 36.5191 9.62788 37.6703 9.74752C38.5853 9.79622 39.4796 10.0379 40.2946 10.4567C41.1096 10.8754 41.8269 11.4618 42.3993 12.1774C43.549 13.5323 44.12 15.2849 43.989 17.0572C43.9434 18.164 43.6212 19.2418 43.0518 20.1921C42.4825 21.1423 41.6841 21.9348 40.7297 22.4969C39.4114 23.3682 37.8326 23.7568 36.2606 23.5968C35.4387 23.5307 34.6386 23.299 33.9084 22.9158C33.1782 22.5326 32.533 22.0058 32.0115 21.367C31.0115 20.1852 30.419 18.7124 30.3219 17.1671C30.3219 16.8572 30.3219 16.5571 30.3219 16.2572V5.35772C30.3219 5.18772 30.3219 5.12769 30.5419 5.12769H33.3512C33.5312 5.12769 33.5612 5.1877 33.5612 5.3377C33.5212 7.2976 33.5212 9.24753 33.5212 11.2374ZM37.2904 13.0673C36.5671 13.0673 35.8601 13.2817 35.2585 13.6834C34.657 14.0851 34.1879 14.6561 33.9107 15.3243C33.6334 15.9924 33.5604 16.7278 33.7008 17.4375C33.8412 18.1471 34.1887 18.7993 34.6994 19.3115C35.2102 19.8237 35.8613 20.1731 36.5704 20.3154C37.2796 20.4578 38.015 20.3868 38.6838 20.1113C39.3526 19.8358 39.9248 19.3683 40.3281 18.7677C40.7313 18.1672 40.9476 17.4606 40.9496 16.7372C40.9523 16.2554 40.8595 15.7778 40.6767 15.332C40.4938 14.8862 40.2245 14.481 39.8843 14.1398C39.5442 13.7987 39.1398 13.5282 38.6946 13.3442C38.2494 13.1601 37.7721 13.066 37.2904 13.0673Z" fill="#3D5CAA"/>
<path opacity="0.37" d="M65.9542 0.457943C66.1942 0.52794 66.4441 0.56795 66.6841 0.657946C67.2908 0.906045 67.7912 1.3592 68.0982 1.93846C68.4051 2.51772 68.4991 3.18633 68.3637 3.82778C68.3484 3.87456 68.3501 3.92521 68.3684 3.9709C68.3866 4.01659 68.4204 4.05442 68.4637 4.07777L74.5124 8.77755L77.0618 10.7775C77.0815 10.8006 77.1061 10.8193 77.1337 10.8321C77.1613 10.8449 77.1914 10.8514 77.2218 10.8514C77.2522 10.8514 77.2823 10.8449 77.3099 10.8321C77.3375 10.8193 77.362 10.8006 77.3817 10.7775C78.2576 10.0934 79.2872 9.63338 80.3811 9.43749C80.5011 9.43749 80.5311 9.3775 80.5311 9.25751V6.31765C80.536 6.27057 80.5248 6.22325 80.4994 6.18332C80.4739 6.14338 80.4358 6.11321 80.3911 6.09769C79.9325 5.83923 79.5656 5.44466 79.3411 4.96853C79.1165 4.4924 79.0454 3.95827 79.1376 3.43998C79.2299 2.92168 79.4809 2.44483 79.8559 2.07542C80.2309 1.70601 80.7113 1.46224 81.2309 1.37788C81.8156 1.29002 82.4125 1.40901 82.9189 1.71423C83.4253 2.01945 83.8094 2.49178 84.0049 3.04986C84.2004 3.60794 84.195 4.21672 83.9897 4.77127C83.7845 5.32583 83.3922 5.7914 82.8806 6.08768C82.8283 6.11216 82.7849 6.15224 82.7562 6.20236C82.7276 6.25248 82.7152 6.31023 82.7206 6.36769C82.7206 7.30098 82.7206 8.23092 82.7206 9.15754C82.7206 9.36753 82.7805 9.42752 82.9805 9.46752C84.2813 9.68498 85.4923 10.2719 86.469 11.1584C87.4457 12.0448 88.147 13.1934 88.4893 14.4673C88.7676 15.4087 88.8449 16.3982 88.716 17.3714C88.587 18.3447 88.2548 19.28 87.741 20.1164C87.2271 20.9529 86.543 21.6719 85.7332 22.2267C84.9234 22.7815 84.006 23.1598 83.0406 23.3369C82.0827 23.54 81.0927 23.5371 80.1361 23.3285C79.1795 23.1199 78.2781 22.7103 77.4917 22.1269C77.3617 22.0369 77.2917 22.0369 77.1818 22.1269L74.8223 24.4868C74.7774 24.5253 74.7449 24.5762 74.7289 24.6332C74.7129 24.6901 74.7141 24.7505 74.7323 24.8068C74.799 25.1107 74.8033 25.425 74.7449 25.7306C74.6866 26.0362 74.5669 26.3268 74.3931 26.5848C74.2193 26.8428 73.9949 27.0629 73.7335 27.2316C73.4722 27.4004 73.1794 27.5143 72.8727 27.5666C72.557 27.6179 72.2342 27.6031 71.9245 27.5231C71.6149 27.4431 71.3252 27.2996 71.0739 27.1018C70.8226 26.904 70.6151 26.6561 70.4646 26.3739C70.3141 26.0917 70.2238 25.7812 70.1995 25.4623C70.1751 25.1434 70.2173 24.8228 70.3233 24.5211C70.4293 24.2193 70.5968 23.9428 70.8153 23.7092C71.0337 23.4755 71.2982 23.2898 71.5922 23.1637C71.8861 23.0377 72.203 22.974 72.5228 22.9769C72.6553 22.9567 72.7902 22.9567 72.9227 22.9769C73.1127 23.0569 73.2126 22.9769 73.3426 22.8469C74.1124 22.0669 74.8923 21.2869 75.6821 20.517C75.7821 20.407 75.8021 20.347 75.6821 20.217C74.7878 18.8847 74.3784 17.2854 74.5224 15.6872C74.6123 14.5709 74.9726 13.4933 75.5721 12.5474C75.6621 12.4174 75.6421 12.3574 75.5222 12.2674L67.044 5.67773C67.0088 5.64468 66.9623 5.62628 66.914 5.62628C66.8657 5.62628 66.8192 5.64468 66.784 5.67773C66.4209 5.85995 66.0227 5.96124 65.6167 5.97465C65.2107 5.98805 64.8066 5.91324 64.4323 5.75536C64.058 5.59748 63.7224 5.36028 63.4486 5.06014C63.1748 4.76 62.9694 4.40403 62.8464 4.01679C62.7234 3.62956 62.6859 3.22029 62.7364 2.81714C62.7869 2.414 62.9241 2.02659 63.1388 1.68164C63.3534 1.33669 63.6403 1.04241 63.9797 0.819071C64.319 0.595729 64.7027 0.448622 65.1044 0.387939C65.1308 0.393617 65.158 0.393617 65.1844 0.387939L65.9542 0.457943ZM77.9516 16.4572C77.9516 17.1742 78.164 17.8752 78.5619 18.4717C78.9598 19.0682 79.5254 19.5335 80.1874 19.8088C80.8494 20.0841 81.5781 20.1571 82.2816 20.0187C82.985 19.8802 83.6317 19.5365 84.14 19.0308C84.6484 18.5252 84.9956 17.8803 85.1379 17.1775C85.2802 16.4747 85.2111 15.7455 84.9395 15.0819C84.6679 14.4183 84.2058 13.85 83.6117 13.4488C83.0175 13.0475 82.3178 12.8313 81.6009 12.8273C80.6416 12.8246 79.7198 13.1997 79.035 13.8715C78.3502 14.5434 77.9574 15.4579 77.9416 16.4172L77.9516 16.4572Z" fill="#3D5CAA"/>
<path opacity="0.57" d="M0.218445 5.01782H3.37777C3.56773 5.01782 3.62771 5.01786 3.62771 5.24785C3.62771 7.70774 3.62771 10.1609 3.62771 12.6075C3.62771 12.7675 3.62769 12.8174 3.82765 12.8174H10.5862C10.7662 12.8174 10.7862 12.7575 10.7862 12.6075C10.7862 10.1476 10.7862 7.68772 10.7862 5.22783C10.7862 5.06784 10.7862 5.01782 10.9961 5.01782H13.9455C14.1954 5.01782 14.1954 5.01782 14.1954 5.26781V23.487C14.1954 23.577 14.1954 23.617 14.0754 23.617H10.9161C10.7662 23.617 10.7862 23.5269 10.7862 23.4469V18.7172C10.7862 17.8972 10.7862 17.0873 10.7862 16.2773C10.7862 16.1273 10.7862 16.0773 10.5962 16.0773H3.81767C3.65771 16.0773 3.62771 16.0773 3.62771 16.2773V23.407C3.62771 23.5669 3.6277 23.617 3.42774 23.617H0.228452L0.218445 5.01782Z" fill="#3D5CAA"/>
<path opacity="0.57" d="M61.8551 21.9668V22.2168C61.8551 24.1067 61.8551 25.9966 61.8551 27.8865C61.8551 28.0565 61.8051 28.0965 61.6452 28.0865H58.7858C58.6858 28.0865 58.6158 28.0865 58.6158 27.9465C58.6158 24.0967 58.6158 20.2369 58.6158 16.3871C58.6089 15.4127 58.8106 14.4482 59.2072 13.5583C59.6038 12.6683 60.1862 11.8736 60.9153 11.2274C61.5798 10.61 62.3725 10.1473 63.2368 9.87244C64.101 9.59756 65.0153 9.5173 65.9142 9.6374C67.7089 9.80169 69.3742 10.6417 70.5732 11.9873C71.5884 13.0597 72.1968 14.4534 72.2929 15.9271C72.4345 17.2059 72.2098 18.4986 71.6452 19.6546C71.0805 20.8107 70.1991 21.7825 69.1036 22.4568C68.3185 22.9858 67.4218 23.326 66.4835 23.4509C65.5452 23.5758 64.5908 23.482 63.6947 23.1768C63.0714 22.9638 62.4994 22.6233 62.0151 22.1768L61.8551 21.9668ZM65.6243 20.1469C66.3476 20.1469 67.0547 19.9325 67.6562 19.5308C68.2577 19.1291 68.7268 18.5581 69.004 17.8899C69.2812 17.2218 69.3543 16.4864 69.2139 15.7768C69.0735 15.0671 68.726 14.415 68.2153 13.9028C67.7045 13.3905 67.0535 13.0412 66.3443 12.8988C65.6351 12.7565 64.8997 12.8275 64.2309 13.103C63.5621 13.3785 62.9899 13.846 62.5867 14.4466C62.1834 15.0471 61.9671 15.7537 61.9651 16.4771C61.9678 17.446 62.3544 18.3743 63.0404 19.0585C63.7263 19.7427 64.6555 20.1269 65.6243 20.1269V20.1469Z" fill="#3D5CAA"/>
<path opacity="0.57" d="M54.2068 9.90756C53.6972 9.37522 53.0939 8.9413 52.4271 8.62759C51.7416 8.28268 50.9478 8.22163 50.2176 8.45762C49.8624 8.56428 49.5488 8.77813 49.3197 9.06989C49.0906 9.36165 48.9573 9.71708 48.9379 10.0875C48.9279 10.2574 48.9279 10.4277 48.9379 10.5975C48.9519 10.7963 49.0104 10.9893 49.1091 11.1624C49.2077 11.3355 49.344 11.4841 49.5078 11.5975C50.0028 11.9411 50.5544 12.195 51.1374 12.3474C52.0323 12.6207 52.9075 12.9548 53.7568 13.3474C54.5529 13.7046 55.2362 14.2724 55.7331 14.9897C56.23 15.7069 56.5215 16.5463 56.5762 17.4172C56.7134 18.3995 56.5999 19.4004 56.2463 20.327C55.9662 21.0073 55.541 21.6183 55.0006 22.1174C54.4601 22.6165 53.8173 22.9917 53.117 23.2169C51.7184 23.7456 50.1872 23.8124 48.7479 23.4075C47.3086 23.0026 46.0367 22.1474 45.1187 20.967C45.0587 20.897 45.0587 20.857 45.1187 20.787C45.8486 20.0371 46.5684 19.2771 47.2882 18.5271C47.3782 18.4271 47.4182 18.5271 47.4782 18.5271C47.8097 18.9619 48.1961 19.3518 48.6279 19.6871C49.0664 20.0264 49.5867 20.2439 50.1362 20.3176C50.6857 20.3914 51.2449 20.3188 51.7573 20.1071C52.1442 19.9557 52.4743 19.6876 52.7019 19.3399C52.9294 18.9923 53.0431 18.5824 53.027 18.1672C53.0169 17.8749 52.9362 17.5894 52.7917 17.3351C52.6471 17.0809 52.4431 16.8654 52.1972 16.7072C51.6133 16.3302 50.981 16.0342 50.3176 15.8273C49.4626 15.5605 48.6301 15.2261 47.8281 14.8273C47.2025 14.5273 46.6585 14.0806 46.2425 13.5252C45.8265 12.9699 45.5508 12.3223 45.4387 11.6375C45.2734 10.9451 45.2504 10.2264 45.371 9.52489C45.4916 8.82336 45.7533 8.15363 46.1403 7.55623C46.5272 6.95883 47.0314 6.4462 47.6223 6.04941C48.2132 5.65261 48.8784 5.37992 49.5777 5.24781C50.6197 4.98691 51.7092 4.98154 52.7536 5.23225C53.798 5.48295 54.7664 5.98224 55.5765 6.68768C55.8187 6.89162 56.0397 7.11948 56.2363 7.3677C56.2363 7.4277 56.3063 7.46768 56.2363 7.53768C55.5565 8.32764 54.8866 9.12761 54.2367 9.91757L54.2068 9.90756Z" fill="#3D5CAA"/>
<path opacity="0.57" d="M28.2524 14.2373C28.2524 15.3072 28.3124 16.6271 28.2524 17.9571C28.2201 18.848 27.9811 19.7193 27.5542 20.502C27.1274 21.2847 26.5244 21.9573 25.7929 22.4669C24.9722 23.0753 24.0097 23.464 22.9966 23.5961C21.9836 23.7282 20.9536 23.5993 20.0043 23.2218C19.0551 22.8442 18.2179 22.2304 17.5723 21.4385C16.9266 20.6467 16.4938 19.703 16.315 18.697C16.2499 18.3072 16.2198 17.9123 16.225 17.5171C16.225 14.9572 16.225 12.3973 16.225 9.83745C16.225 9.66746 16.275 9.63745 16.435 9.63745H19.2544C19.4243 9.63745 19.4643 9.68747 19.4643 9.84746C19.4643 12.4173 19.4643 14.9772 19.4643 17.5471C19.4403 18.0998 19.5866 18.6465 19.8834 19.1133C20.1802 19.5801 20.6133 19.9444 21.1239 20.157C21.5475 20.3507 22.0129 20.4352 22.4775 20.4028C22.9422 20.3704 23.3913 20.2222 23.784 19.9717C24.1766 19.7211 24.5004 19.3762 24.7255 18.9684C24.9507 18.5606 25.0702 18.1029 25.0731 17.6371C25.0731 15.0472 25.0731 12.4473 25.0731 9.85747C25.0731 9.66748 25.1331 9.63745 25.303 9.63745H28.1024C28.2624 9.63745 28.3024 9.68746 28.3024 9.83745C28.2524 11.2174 28.2524 12.5973 28.2524 14.2373Z" fill="#3D5CAA"/>
<path opacity="0.57" d="M94.0782 6.44783V8.64774C94.0782 9.08772 94.0782 9.52771 94.0782 9.97769C94.0782 10.1177 94.0782 10.1577 94.2481 10.1577H96.8575C97.0075 10.1577 97.0475 10.1577 97.0475 10.3377C97.0475 11.1676 97.0475 11.9876 97.0475 12.8175C97.0475 12.9575 97.0475 12.9976 96.8675 12.9876H94.2781C94.1282 12.9876 94.0782 12.9876 94.0782 13.1775V18.5573C94.0581 18.7568 94.0581 18.9578 94.0782 19.1572C94.1361 19.536 94.3211 19.8838 94.6027 20.1436C94.8842 20.4035 95.2457 20.5598 95.6278 20.5872C96.2262 20.6473 96.8291 20.6473 97.4274 20.5872C97.454 20.5747 97.483 20.5682 97.5124 20.5682C97.5418 20.5682 97.5708 20.5747 97.5974 20.5872C97.3475 21.5271 97.0975 22.4671 96.8376 23.407C96.8332 23.4336 96.8199 23.458 96.7999 23.4761C96.78 23.4943 96.7545 23.5051 96.7276 23.507C95.3683 23.7705 93.96 23.5698 92.7284 22.937C92.217 22.6539 91.779 22.255 91.4492 21.7724C91.1193 21.2897 90.9069 20.7366 90.8289 20.1572C90.7747 19.8267 90.7479 19.4922 90.7489 19.1572V8.07776C90.7393 8.01713 90.7523 7.95508 90.7855 7.90345C90.8187 7.85181 90.8697 7.81423 90.9288 7.7978L93.8682 6.48787C93.9782 6.46787 94.0182 6.42783 94.0782 6.44783Z" fill="#3D5CAA"/>
</svg>
