<svg width="555" height="381" viewBox="0 0 555 381" fill="none" xmlns="http://www.w3.org/2000/svg">
<g opacity="0.84">
<path d="M141.789 234.933C143.693 236.781 145.944 238.237 148.411 239.216C150.879 240.196 153.515 240.681 156.17 240.643C158.825 240.605 161.447 240.045 163.885 238.995C166.323 237.945 168.531 236.426 170.381 234.524L181.876 222.705C192.881 211.436 211.538 222.275 211.538 222.275L223.373 233.755C225.278 235.602 227.529 237.057 229.997 238.035C232.465 239.014 235.101 239.498 237.756 239.459C240.411 239.42 243.033 238.859 245.471 237.808C247.909 236.757 250.116 235.237 251.965 233.335L263.97 220.987C267.705 217.142 269.758 211.974 269.679 206.618C269.6 201.263 267.396 196.157 263.55 192.424L251.205 180.425C247.358 176.695 242.186 174.643 236.824 174.72C231.463 174.797 226.351 176.996 222.613 180.835L211.108 192.614C200.104 203.883 181.446 193.043 181.446 193.043L169.611 181.624C165.763 177.896 160.589 175.845 155.228 175.924C149.867 176.003 144.756 178.204 141.019 182.044L129.014 194.402C127.163 196.304 125.706 198.551 124.725 201.015C123.744 203.479 123.259 206.112 123.297 208.763C123.335 211.415 123.896 214.033 124.947 216.468C125.998 218.903 127.52 221.107 129.424 222.955L141.789 234.933Z" stroke="white" stroke-width="4" stroke-miterlimit="10"/>
<path d="M310.23 291.22C321.234 279.951 339.892 290.79 339.892 290.79L351.727 302.27C353.632 304.117 355.883 305.572 358.351 306.55C360.818 307.529 363.455 308.013 366.11 307.974C368.765 307.935 371.387 307.374 373.825 306.323C376.263 305.272 378.469 303.752 380.319 301.85L392.324 289.502C396.061 285.658 398.116 280.49 398.037 275.133C397.958 269.777 395.752 264.671 391.904 260.939L379.529 248.95C377.624 247.103 375.373 245.648 372.905 244.669C370.438 243.691 367.801 243.207 365.146 243.246C362.491 243.285 359.869 243.846 357.431 244.897C354.993 245.947 352.787 247.467 350.937 249.37L339.442 261.179C328.437 272.448 309.78 261.608 309.78 261.608L297.945 250.129C294.096 246.401 288.923 244.35 283.562 244.429C278.2 244.508 273.09 246.709 269.353 250.549L257.858 262.367C246.853 273.637 228.195 262.797 228.195 262.797L216.36 251.318C212.513 247.588 207.341 245.536 201.98 245.613C196.618 245.69 191.507 247.889 187.768 251.728L175.763 264.086C172.025 267.928 169.969 273.096 170.046 278.452C170.122 283.808 172.327 288.915 176.174 292.649L188.549 304.637C190.454 306.485 192.704 307.939 195.172 308.918C197.64 309.897 200.277 310.38 202.932 310.342C205.587 310.303 208.208 309.742 210.646 308.691C213.084 307.64 215.291 306.12 217.141 304.218L228.636 292.409C239.64 281.14 258.298 291.979 258.298 291.979L270.133 303.448C272.037 305.296 274.287 306.752 276.755 307.731C279.222 308.711 281.859 309.196 284.514 309.158C287.169 309.12 289.791 308.56 292.229 307.51C294.667 306.46 296.875 304.941 298.725 303.039L310.23 291.22Z" stroke="white" stroke-width="4" stroke-miterlimit="10"/>
<path d="M190.18 163.152C192.084 164.999 194.335 166.454 196.803 167.432C199.271 168.411 201.907 168.895 204.563 168.856C207.218 168.817 209.839 168.256 212.277 167.205C214.715 166.155 216.922 164.635 218.771 162.732L230.266 150.923C241.221 139.654 259.929 150.494 259.929 150.494L271.764 161.963C273.668 163.811 275.918 165.266 278.386 166.246C280.853 167.225 283.49 167.71 286.145 167.672C288.8 167.634 291.421 167.074 293.86 166.024C296.298 164.974 298.505 163.455 300.356 161.553L311.851 149.744C322.855 138.465 341.513 149.305 341.513 149.305L353.348 160.784C357.195 164.514 362.367 166.566 367.729 166.489C373.09 166.412 378.202 164.213 381.94 160.374L393.435 148.556C404.439 137.286 423.097 148.126 423.097 148.126L434.912 159.645C438.76 163.374 443.934 165.424 449.295 165.345C454.656 165.266 459.767 163.065 463.504 159.225L475.509 146.867C477.36 144.966 478.817 142.719 479.798 140.254C480.779 137.79 481.264 135.157 481.226 132.506C481.188 129.855 480.627 127.237 479.576 124.802C478.525 122.367 477.003 120.162 475.099 118.314L462.724 106.326C460.82 104.478 458.569 103.022 456.102 102.043C453.634 101.063 450.998 100.579 448.343 100.617C445.688 100.655 443.066 101.215 440.628 102.264C438.19 103.314 435.982 104.834 434.132 106.735L422.637 118.554C411.632 129.813 392.975 118.984 392.975 118.984L381.14 107.505C379.235 105.657 376.984 104.203 374.516 103.224C372.048 102.245 369.412 101.761 366.757 101.8C364.101 101.839 361.48 102.4 359.042 103.451C356.604 104.502 354.397 106.022 352.548 107.924L341.063 119.683C330.058 130.952 311.4 120.113 311.4 120.113L299.565 108.693C297.661 106.845 295.411 105.39 292.944 104.41C290.476 103.431 287.839 102.946 285.184 102.984C282.529 103.022 279.908 103.582 277.469 104.632C275.031 105.682 272.824 107.201 270.973 109.103L259.479 120.922C248.474 132.191 229.816 121.351 229.816 121.351L217.981 109.872C216.076 108.025 213.826 106.57 211.358 105.592C208.89 104.613 206.253 104.129 203.598 104.168C200.943 104.207 198.322 104.768 195.884 105.819C193.446 106.869 191.239 108.389 189.389 110.292L177.384 122.64C173.647 126.484 171.592 131.652 171.671 137.009C171.75 142.365 173.956 147.471 177.804 151.203L190.18 163.152Z" stroke="white" stroke-width="4" stroke-miterlimit="10"/>
<path d="M19.1667 182.161L7.53242 194.121C0.00206306 201.862 0.18154 214.233 7.93329 221.754L19.9096 233.372C27.6614 240.892 40.05 240.713 47.5804 232.972L59.2147 221.012C66.745 213.27 66.5655 200.899 58.8138 193.379L46.8374 181.76C39.0857 174.24 26.6971 174.42 19.1667 182.161Z" stroke="white" stroke-width="4" stroke-miterlimit="10"/>
<path d="M525.59 186.16L513.225 174.171C509.376 170.44 504.201 168.388 498.837 168.466C493.473 168.545 488.36 170.748 484.623 174.591L473.128 186.4C462.124 197.669 443.466 186.829 443.466 186.829L431.641 175.36C427.793 171.627 422.619 169.573 417.255 169.65C411.891 169.727 406.777 171.928 403.039 175.77L391.034 188.128C387.298 191.972 385.243 197.139 385.32 202.494C385.397 207.85 387.599 212.956 391.444 216.691L403.819 228.68C407.668 232.411 412.843 234.463 418.207 234.385C423.571 234.306 428.684 232.103 432.421 228.26L443.906 216.451C454.911 205.182 473.578 216.022 473.578 216.022L485.403 227.491C489.251 231.224 494.425 233.277 499.789 233.201C505.153 233.124 510.267 230.923 514.005 227.081L526.01 214.723C527.862 212.82 529.32 210.572 530.301 208.107C531.282 205.641 531.766 203.007 531.727 200.354C531.688 197.702 531.126 195.083 530.073 192.647C529.02 190.212 527.497 188.007 525.59 186.16Z" stroke="white" stroke-width="4" stroke-miterlimit="10"/>
<path d="M223.391 320.382L211.38 332.729C203.596 340.732 203.782 353.521 211.795 361.294L224.159 373.289C232.172 381.062 244.979 380.877 252.763 372.875L264.774 360.528C272.558 352.526 272.373 339.737 264.359 331.963L251.996 319.968C243.982 312.195 231.176 312.38 223.391 320.382Z" stroke="white" stroke-width="4" stroke-miterlimit="10"/>
<path d="M139.287 319.122L127.276 331.469C119.492 339.472 119.677 352.261 127.691 360.035L140.055 372.029C148.068 379.803 160.874 379.617 168.659 371.615L180.67 359.268C188.454 351.266 188.269 338.477 180.255 330.703L167.891 318.709C159.878 310.935 147.071 311.12 139.287 319.122Z" stroke="white" stroke-width="4" stroke-miterlimit="10"/>
<path d="M60.8569 326.414L51.8297 335.694C45.9895 341.697 46.1287 351.292 52.1406 357.125L61.4332 366.139C67.4452 371.972 77.0533 371.833 82.8936 365.829L91.9208 356.549C97.7611 350.545 97.6219 340.95 91.6099 335.118L82.3173 326.103C76.3053 320.271 66.6972 320.41 60.8569 326.414Z" stroke="white" stroke-width="4" stroke-miterlimit="10"/>
</g>
<path opacity="0.84" d="M421.356 318.714C419.452 316.866 417.202 315.411 414.735 314.431C412.267 313.451 409.631 312.967 406.975 313.005C404.32 313.043 401.699 313.603 399.261 314.653C396.822 315.702 394.615 317.222 392.764 319.124L381.26 330.942C370.255 342.212 351.597 331.372 351.597 331.372L339.772 319.893C337.867 318.045 335.617 316.591 333.149 315.612C330.681 314.633 328.044 314.15 325.389 314.189C322.734 314.228 320.113 314.788 317.675 315.839C315.237 316.89 313.03 318.41 311.18 320.312L299.175 332.661C295.441 336.505 293.388 341.673 293.466 347.029C293.545 352.385 295.75 357.49 299.595 361.224L311.971 373.212C313.875 375.06 316.125 376.516 318.592 377.495C321.06 378.475 323.696 378.959 326.352 378.921C329.007 378.883 331.628 378.323 334.066 377.273C336.505 376.224 338.712 374.704 340.563 372.803L352.057 360.984C363.062 349.714 381.72 360.554 381.72 360.554L393.555 372.033C395.46 373.881 397.71 375.335 400.178 376.314C402.646 377.293 405.283 377.776 407.938 377.737C410.593 377.698 413.214 377.138 415.652 376.087C418.09 375.036 420.297 373.516 422.147 371.614L434.152 359.265C437.89 355.423 439.947 350.256 439.87 344.899C439.793 339.543 437.588 334.436 433.742 330.703L421.356 318.714Z" fill="#3D5CAA"/>
<path d="M316.137 185.266L307.863 193.772C302.5 199.285 302.628 208.095 308.148 213.451L316.666 221.714C322.186 227.07 331.009 226.942 336.372 221.429L344.646 212.923C350.009 207.41 349.882 198.599 344.361 193.244L335.843 184.981C330.323 179.625 321.5 179.753 316.137 185.266Z" fill="#F79520"/>
<path opacity="0.84" d="M447.821 254.308L439.128 263.244C433.507 269.022 433.641 278.256 439.427 283.87L448.375 292.55C454.161 298.163 463.409 298.03 469.029 292.251L477.722 283.315C483.343 277.537 483.209 268.303 477.423 262.69L468.475 254.009C462.689 248.396 453.441 248.53 447.821 254.308Z" fill="#F15A24"/>
<path opacity="0.84" d="M228.004 19.1546L212.118 35.4858C201.827 46.0646 202.072 62.9712 212.666 73.2479L229.019 89.1126C239.612 99.3893 256.542 99.1443 266.833 88.5656L282.719 72.2344C293.01 61.6556 292.765 44.749 282.172 34.4723L265.818 18.6076C255.225 8.33092 238.295 8.57586 228.004 19.1546Z" fill="#3B51A3"/>
<path opacity="0.84" d="M87.0322 194.32L80.9885 200.533C77.077 204.554 77.1702 210.981 81.1967 214.887L87.4181 220.922C91.4446 224.828 97.8795 224.735 101.791 220.714L107.835 214.501C111.746 210.48 111.653 204.054 107.626 200.148L101.405 194.113C97.3786 190.206 90.9437 190.3 87.0322 194.32Z" fill="#F15A24"/>
<path d="M516.78 107.248L508.506 115.754C503.143 121.267 503.271 130.077 508.792 135.433L517.309 143.696C522.83 149.051 531.652 148.924 537.015 143.411L545.29 134.905C550.653 129.392 550.525 120.581 545.004 115.226L536.487 106.963C530.966 101.607 522.143 101.735 516.78 107.248Z" fill="#F79520"/>
</svg>
