<svg width="318" height="176" viewBox="0 0 318 176" fill="none" xmlns="http://www.w3.org/2000/svg">
<path opacity="0.07" d="M115.507 160.075C124.505 150.776 139.952 159.725 139.952 159.725L149.7 169.195C152.871 172.273 157.135 173.966 161.555 173.9C165.974 173.835 170.186 172.016 173.265 168.845L183.162 158.655C186.242 155.484 187.936 151.22 187.872 146.8C187.808 142.38 185.992 138.167 182.822 135.086L172.625 125.187C171.056 123.661 169.203 122.459 167.17 121.65C165.137 120.841 162.965 120.441 160.777 120.473C158.589 120.505 156.429 120.967 154.42 121.834C152.411 122.701 150.593 123.956 149.07 125.527L139.602 135.276C130.604 144.576 115.157 135.626 115.157 135.626L105.409 126.157C102.238 123.078 97.9734 121.386 93.5543 121.451C89.1351 121.517 84.923 123.335 81.8443 126.507L72.3763 136.246C63.3783 145.556 47.9317 136.606 47.9317 136.606L38.1938 127.137C35.0236 124.057 30.76 122.362 26.3409 122.426C21.9217 122.49 17.7089 124.307 14.6288 127.477L4.72092 137.676C1.64283 140.848 -0.0494997 145.113 0.0161218 149.533C0.0817434 153.953 1.90004 158.166 5.07094 161.245L15.2587 171.145C18.4289 174.224 22.6925 175.919 27.1116 175.855C31.5307 175.791 35.7435 173.975 38.8235 170.805L48.2916 161.055C57.2896 151.756 72.7363 160.695 72.7363 160.695L82.4841 170.165C84.0524 171.691 85.9061 172.892 87.939 173.701C89.972 174.51 92.1444 174.91 94.3321 174.878C96.5197 174.847 98.6798 174.384 100.689 173.517C102.697 172.65 104.516 171.395 106.039 169.825L115.507 160.075Z" fill="#3D5CAA"/>
<path opacity="0.07" d="M16.5884 51.9705C18.1573 53.4957 20.0114 54.6967 22.0448 55.5047C24.0781 56.3127 26.2508 56.7118 28.4385 56.6793C30.6262 56.6468 32.786 56.1833 34.7945 55.3153C36.8029 54.4472 38.6205 53.1917 40.1434 51.6205L49.6113 41.8809C58.6094 32.5714 74.0561 41.5209 74.0561 41.5209L83.804 50.9905C86.9742 54.0704 91.2377 55.7648 95.6568 55.701C100.076 55.6373 104.289 53.8206 107.369 50.6505L116.837 40.901C125.835 31.6014 141.282 40.541 141.282 40.541L151.029 50.0105C152.598 51.5364 154.451 52.7382 156.484 53.547C158.517 54.3559 160.69 54.756 162.877 54.7244C165.065 54.6928 167.225 54.2302 169.234 53.363C171.243 52.4958 173.061 51.2411 174.584 49.6706L184.052 39.921C193.05 30.6215 208.497 39.571 208.497 39.571L218.245 49.0406C221.416 52.1192 225.681 53.8118 230.1 53.7462C234.519 53.6805 238.731 51.862 241.81 48.6906L251.708 38.5011C254.787 35.3304 256.481 31.0662 256.417 26.6463C256.354 22.2264 254.537 18.0128 251.368 14.9322L241.17 5.0327C239.602 3.50678 237.748 2.30503 235.715 1.49618C233.682 0.687341 231.51 0.287296 229.322 0.318872C227.134 0.350449 224.974 0.813016 222.966 1.6802C220.957 2.54738 219.139 3.80217 217.615 5.37271L208.147 15.1222C199.149 24.4218 183.702 15.4822 183.702 15.4722L173.954 5.97265C170.783 2.89405 166.519 1.20144 162.1 1.26707C157.68 1.3327 153.468 3.15118 150.39 6.32261L140.922 16.0721C131.924 25.3617 116.477 16.4222 116.477 16.4222L106.729 6.95259C105.16 5.42787 103.306 4.22722 101.274 3.41913C99.2406 2.61103 97.0684 2.21134 94.8811 2.24291C92.6938 2.27448 90.5341 2.73671 88.5254 3.60314C86.5167 4.46957 84.6984 5.72324 83.1741 7.2926L73.7061 17.0421C64.708 26.3417 49.2614 17.4021 49.2614 17.4021L39.5135 7.93258C36.3433 4.85267 32.0798 3.15824 27.6606 3.22199C23.2415 3.28575 19.0287 5.10245 15.9487 8.27253L6.05078 18.4721C2.99038 21.6385 1.30804 25.8881 1.37174 30.2917C1.43544 34.6952 3.23997 38.8944 6.39068 41.9709L16.5884 51.9705Z" fill="#3D5CAA"/>
<path opacity="0.07" d="M120.406 72.6691L113.586 79.6909C109.169 84.2384 109.274 91.506 113.821 95.9236L120.841 102.745C125.388 107.162 132.654 107.057 137.071 102.51L143.891 95.4878C148.308 90.9404 148.203 83.6727 143.656 79.2551L136.636 72.4339C132.089 68.0163 124.823 68.1216 120.406 72.6691Z" fill="#3D5CAA"/>
<path opacity="0.07" d="M292.969 73.3692L282.771 63.4697C279.599 60.3922 275.336 58.6995 270.918 58.7632C266.5 58.827 262.287 60.642 259.206 63.8097L249.738 73.5592C240.74 82.8587 225.303 73.9192 225.293 73.9192L215.555 64.4496C212.385 61.3697 208.122 59.6753 203.703 59.7391C199.283 59.8028 195.071 61.6195 191.991 64.7896L182.083 74.9691C179.005 78.1411 177.312 82.4061 177.378 86.826C177.443 91.2459 179.262 95.4587 182.433 98.538L192.62 108.447C195.792 111.526 200.056 113.219 204.475 113.153C208.894 113.087 213.107 111.269 216.185 108.098L225.653 98.358C234.651 89.0584 250.098 98.008 250.098 98.008L259.846 107.478C261.415 109.002 263.269 110.203 265.301 111.011C267.334 111.819 269.506 112.219 271.694 112.187C273.881 112.156 276.041 111.693 278.049 110.827C280.058 109.961 281.876 108.707 283.401 107.138L293.329 96.968C294.855 95.3955 296.057 93.5374 296.866 91.5C297.674 89.4625 298.073 87.2857 298.039 85.094C298.006 82.9023 297.541 80.7386 296.671 78.7268C295.801 76.715 294.543 74.8944 292.969 73.3692Z" fill="#3D5CAA"/>
<path opacity="0.07" d="M228.897 129.646L221.742 137.012C217.11 141.781 217.22 149.403 221.989 154.036L229.354 161.192C234.122 165.825 241.743 165.715 246.375 160.945L253.53 153.579C258.162 148.81 258.052 141.188 253.283 136.555L245.918 129.399C241.15 124.766 233.529 124.876 228.897 129.646Z" fill="#3D5CAA"/>
<path opacity="0.07" d="M285.719 8.29846L278.899 15.3202C274.482 19.8677 274.587 27.1354 279.134 31.5529L286.155 38.3742C290.701 42.7918 297.968 42.6864 302.385 38.139L309.205 31.1172C313.622 26.5698 313.516 19.3022 308.97 14.8846L301.949 8.0633C297.402 3.6457 290.136 3.75099 285.719 8.29846Z" fill="#3D5CAA"/>
</svg>
