<svg width="173" height="103" viewBox="0 0 173 103" fill="none" xmlns="http://www.w3.org/2000/svg">
<path opacity="0.84" d="M66.9447 92.3347C72.1018 87.0273 80.899 92.1342 80.899 92.1342L86.4662 97.5374C87.3623 98.4081 88.4212 99.0937 89.5823 99.555C90.7434 100.016 91.9841 100.244 93.2334 100.226C94.4827 100.208 95.7162 99.944 96.8634 99.449C98.0106 98.9541 99.049 98.2379 99.9194 97.3416L105.573 91.5238C107.33 89.7134 108.297 87.2793 108.26 84.7566C108.223 82.2339 107.187 79.829 105.377 78.0705L99.555 72.4167C98.6591 71.5455 97.6003 70.8595 96.4392 70.3978C95.278 69.9361 94.0372 69.7078 92.7878 69.726C91.5383 69.7442 90.3047 70.0086 89.1574 70.5039C88.0102 70.9992 86.9718 71.7158 86.1017 72.6127L80.6986 78.1753C75.5414 83.4874 66.7396 78.3803 66.7396 78.3803L61.177 72.9726C59.3666 71.2154 56.9326 70.2488 54.4098 70.2856C51.8871 70.3223 49.4822 71.3593 47.7238 73.1685L42.3161 78.7311C37.1589 84.0386 28.3617 78.9315 28.3617 78.9315L22.7945 73.5284C21.8987 72.6575 20.84 71.9716 19.6791 71.5098C18.5181 71.0481 17.2775 70.8195 16.0282 70.8372C14.7789 70.855 13.5454 71.1188 12.398 71.6134C11.2507 72.1079 10.212 72.8237 9.34127 73.7197L3.69209 79.5421C2.82113 80.4379 2.13521 81.4965 1.67346 82.6575C1.21171 83.8184 0.983194 85.059 1.00096 86.3083C1.01873 87.5576 1.28242 88.7911 1.77701 89.9385C2.27159 91.0859 2.98737 92.1246 3.88345 92.9953L9.70573 98.649C11.5161 100.406 13.9502 101.373 16.4729 101.336C18.9956 101.299 21.4005 100.262 23.159 98.4531L28.5621 92.8905C33.7193 87.583 42.5211 92.69 42.5211 92.69L48.0837 98.0932C48.9795 98.9642 50.0382 99.6501 51.1991 100.112C52.3601 100.574 53.6007 100.802 54.85 100.784C56.0993 100.767 57.3328 100.503 58.4802 100.008C59.6275 99.5137 60.6662 98.798 61.5369 97.9019L66.9447 92.3347Z" stroke="white" stroke-width="2" stroke-miterlimit="10"/>
<path opacity="0.84" d="M10.4619 30.59C11.3577 31.4612 12.4165 32.1473 13.5776 32.609C14.7388 33.0707 15.9796 33.299 17.2291 33.2808C18.4786 33.2626 19.7122 32.9983 20.8594 32.503C22.0067 32.0077 23.045 31.2911 23.9151 30.3941L29.3182 24.8315C34.4754 19.5194 43.2772 24.6265 43.2772 24.6265L48.8398 30.0342C50.6502 31.7915 53.0843 32.758 55.607 32.7213C58.1297 32.6845 60.5346 31.6476 62.293 29.8384L67.7008 24.2711C72.8579 18.9636 81.6551 24.0707 81.6551 24.0707L87.2223 29.4739C88.1181 30.3448 89.1768 31.0307 90.3378 31.4925C91.4987 31.9542 92.7393 32.1828 93.9886 32.165C95.2379 32.1473 96.4714 31.8835 97.6188 31.3889C98.7662 30.8944 99.8048 30.1786 100.676 29.2825L106.079 23.7153C111.236 18.4079 120.033 23.5104 120.038 23.5149L125.6 28.9181C126.496 29.7887 127.555 30.4743 128.716 30.9356C129.878 31.397 131.118 31.6251 132.367 31.6069C133.617 31.5888 134.85 31.3246 135.997 30.8296C137.145 30.3347 138.183 29.6185 139.053 28.7222L144.707 22.9044C146.464 21.094 147.431 18.66 147.394 16.1372C147.357 13.6145 146.321 11.2097 144.511 9.45121L138.689 3.79746C137.794 2.92639 136.735 2.24042 135.574 1.77878C134.414 1.31713 133.173 1.08889 131.924 1.10709C130.675 1.12528 129.442 1.38952 128.295 1.88477C127.148 2.38003 126.11 3.09655 125.24 3.99333L119.833 9.55598C114.676 14.8635 105.878 9.76097 105.878 9.76097L100.311 4.35325C98.5007 2.596 96.0667 1.62954 93.5439 1.66627C91.0212 1.70301 88.6163 2.73995 86.8579 4.54918L81.4547 10.1163C76.2976 15.4238 67.4958 10.3168 67.4958 10.3168L61.9331 4.92729C61.0373 4.05633 59.9787 3.37041 58.8177 2.90866C57.6568 2.44691 56.4162 2.21837 55.1669 2.23614C53.9176 2.2539 52.684 2.51763 51.5367 3.01221C50.3893 3.50679 49.3506 4.22257 48.4799 5.11865L43.0722 10.6858C37.915 15.9933 29.1178 10.8908 29.1178 10.8862L23.5506 5.48308C22.6545 4.61242 21.5956 3.92682 20.4345 3.46545C19.2734 3.00409 18.0327 2.77602 16.7834 2.79421C15.5341 2.8124 14.3007 3.07653 13.1535 3.57151C12.0063 4.06648 10.9678 4.78262 10.0974 5.679L4.44822 11.4968C3.57727 12.3926 2.89131 13.4512 2.42956 14.6122C1.96781 15.7731 1.7393 17.0137 1.75707 18.263C1.77483 19.5123 2.03856 20.7458 2.53314 21.8932C3.02772 23.0406 3.74348 24.0793 4.63955 24.9499L10.4619 30.59Z" stroke="white" stroke-width="2" stroke-miterlimit="10"/>
<path opacity="0.84" d="M168.261 42.8404L162.443 37.1867C161.547 36.3155 160.488 35.6294 159.327 35.1677C158.166 34.706 156.925 34.4777 155.676 34.4959C154.426 34.5141 153.193 34.7784 152.046 35.2737C150.898 35.7691 149.86 36.4856 148.99 37.3826L143.582 42.9452C138.425 48.2572 129.628 43.1502 129.628 43.1502L124.061 37.7288C122.25 35.9716 119.816 35.0051 117.293 35.0418C114.771 35.0786 112.366 36.1155 110.607 37.9247L104.954 43.747C103.196 45.5574 102.23 47.9914 102.267 50.5142C102.303 53.0369 103.34 55.4418 105.15 57.2002L110.972 62.8539C112.782 64.6112 115.216 65.5778 117.739 65.541C120.262 65.5043 122.667 64.4673 124.425 62.6581L129.828 57.0909C134.985 51.7834 143.787 56.8905 143.787 56.8905L149.35 62.2936C150.246 63.1648 151.304 63.8509 152.466 64.3127C153.627 64.7744 154.868 65.0025 156.117 64.9843C157.366 64.9661 158.6 64.7019 159.747 64.2065C160.895 63.7112 161.933 62.9946 162.803 62.0977L168.457 56.28C170.211 54.4707 171.176 52.0394 171.139 49.5197C171.102 47 170.067 44.5977 168.261 42.8404Z" stroke="white" stroke-width="2" stroke-miterlimit="10"/>
</svg>
