<svg width="63" height="62" viewBox="0 0 63 62" fill="none" xmlns="http://www.w3.org/2000/svg">
<path opacity="0.84" d="M50.7263 23.1622L37.9304 10.3642C33.3076 5.74056 25.8126 5.74059 21.1898 10.3642L8.3939 23.1622C3.77109 27.7858 3.77107 35.2821 8.39387 39.9057L21.1897 52.7037C25.8125 57.3272 33.3076 57.3272 37.9304 52.7036L50.7262 39.9056C55.3491 35.282 55.3491 27.7857 50.7263 23.1622Z" fill="#F15A24"/>
<path d="M12.7312 54.1647L16.1105 53.9747C16.4504 53.9752 16.7771 53.8423 17.0203 53.6047L55.782 15.4666L59.9111 4.04712L36.5361 25.5761C35.2539 26.7904 33.6257 27.5757 31.8772 27.8229C30.1288 28.0702 28.3468 27.7672 26.7782 26.956C25.9228 26.5658 25.1907 25.9482 24.6618 25.1707C24.133 24.3931 23.8276 23.4854 23.7789 22.5462C23.329 13.9367 17.4202 13.8467 8.23216 14.3966C7.62578 14.44 7.05903 14.7138 6.64815 15.162C6.23727 15.6101 6.01347 16.1985 6.02268 16.8065C6.01586 17.1262 6.07375 17.4439 6.19293 17.7406C6.31211 18.0372 6.49009 18.3067 6.71613 18.5328C6.94217 18.7589 7.21157 18.9369 7.5082 19.0561C7.80482 19.1753 8.12248 19.2332 8.44208 19.2264C12.0813 19.0964 19.0598 17.8065 18.6999 24.8161C18.3399 31.8258 25.1086 32.2158 28.5278 33.1657L10.9716 50.6249L12.7312 54.1647Z" fill="white" stroke="white" stroke-width="2" stroke-miterlimit="10"/>
<path d="M26.988 35.9956C25.3783 37.8255 23.7087 39.5755 22.059 41.3654C20.4094 43.1553 18.7197 44.8952 17.0601 46.6351C13.6675 50.115 10.2417 53.5515 6.7824 56.9446L6.07247 55.2747C9.92164 55.1147 13.7709 55.0247 17.62 54.9247L16.9601 55.2147C20.3461 51.7349 23.7821 48.3284 27.268 44.9952C29.0176 43.3253 30.7572 41.6254 32.5469 39.9954C34.3365 38.3655 36.0861 36.6756 37.9057 35.0657C36.346 36.9256 34.7163 38.7255 33.1167 40.5554C31.517 42.3853 29.8774 44.1652 28.2477 45.9652C24.9684 49.5383 21.6358 53.0748 18.2499 56.5746C18.0787 56.7455 17.8514 56.8486 17.61 56.8646C13.7609 57.0046 9.91164 57.1446 6.06247 57.2246C5.79731 57.2246 5.54308 57.1193 5.35559 56.9317C5.16809 56.7442 5.06268 56.4899 5.06268 56.2247C5.0619 56.0907 5.08805 55.9579 5.13957 55.8342C5.1911 55.7105 5.267 55.5985 5.36267 55.5047C8.86191 52.1715 12.4112 48.8583 16.0104 45.5652C17.81 43.9352 19.6095 42.3053 21.4392 40.7054C23.2688 39.1055 25.1084 37.5256 26.988 35.9956Z" fill="url(#paint0_linear_262_3)"/>
<path d="M47.9735 15.6767C45.3841 18.4966 42.9746 21.4664 40.1952 24.1763C38.8376 25.5729 37.3401 26.8261 35.7261 27.9161C34.0079 29.1135 31.9022 29.6204 29.8274 29.3361C28.7539 29.1546 27.7452 28.7 26.8981 28.0161C25.6436 26.9405 24.8345 25.4361 24.6286 23.7963C24.5586 23.2164 24.5486 22.7964 24.4886 22.3564C24.3909 21.4632 24.2033 20.5821 23.9288 19.7265C23.461 18.0848 22.3895 16.6809 20.9294 15.7967C19.359 14.966 17.6249 14.4915 15.8504 14.4068C13.9803 14.2781 12.1044 14.2547 10.2317 14.3368L7.38229 14.4668C7.16234 14.4668 6.85236 14.4668 6.71239 14.4668C6.55841 14.4844 6.40731 14.5214 6.26254 14.5768C5.97197 14.6923 5.7144 14.8778 5.5127 15.1167C5.30175 15.3659 5.15501 15.663 5.0853 15.982C5.01559 16.301 5.025 16.6322 5.11276 16.9467C5.20932 17.2615 5.38211 17.5477 5.61583 17.7797C5.84954 18.0117 6.13691 18.1824 6.45244 18.2766C6.83149 18.3922 7.22595 18.4496 7.62223 18.4466C8.07213 18.4466 8.53204 18.4466 9.00194 18.4466C9.94173 18.4466 10.9116 18.3566 11.9314 18.4466C13.0034 18.4484 14.0618 18.6875 15.0307 19.1466C16.0306 19.6561 16.83 20.4873 17.3002 21.5064C17.7333 22.455 18.0068 23.4686 18.11 24.5063C18.2399 25.5062 18.25 26.4362 18.4199 27.3362C18.5652 28.2338 18.8556 29.1017 19.2797 29.906C19.7278 30.6959 20.3717 31.3571 21.1493 31.8259C22.739 32.8259 24.6885 33.1259 26.4882 33.7559C24.6186 33.3459 22.679 33.2159 20.8794 32.3159C19.9645 31.8541 19.1831 31.1656 18.6098 30.316C18.0511 29.4676 17.6483 28.5262 17.4202 27.5362C17.1702 26.5362 17.0902 25.5362 16.9203 24.6763C16.7788 23.7963 16.495 22.9453 16.0804 22.1564C15.7144 21.4341 15.1156 20.8564 14.3808 20.5165C13.5909 20.198 12.7423 20.0515 11.8913 20.0865C10.9915 20.0865 10.0517 20.1765 9.07187 20.2265C8.59197 20.2265 8.07209 20.2265 7.5822 20.2265C7.01809 20.2445 6.45472 20.1737 5.91264 20.0165C5.29937 19.8478 4.73842 19.5274 4.28152 19.0848C3.82462 18.6422 3.48646 18.0917 3.29821 17.484C3.10997 16.8764 3.07769 16.2311 3.20436 15.6077C3.33103 14.9843 3.61258 14.4028 4.02303 13.9168C4.42885 13.4122 4.95959 13.0226 5.56262 12.7869C5.8648 12.6704 6.18069 12.5932 6.50248 12.5569C6.83241 12.5569 7.01239 12.5569 7.27233 12.4969L10.1617 12.3469C12.1174 12.2339 14.0786 12.2606 16.0304 12.4269C18.0948 12.5514 20.106 13.132 21.9192 14.1268C22.8495 14.6882 23.6558 15.4333 24.2887 16.3167C24.8977 17.1855 25.3604 18.1482 25.6584 19.1665C25.9436 20.1451 26.1278 21.1503 26.2082 22.1664L26.3081 23.5963C26.3411 24.0084 26.4251 24.4149 26.5581 24.8063C26.818 25.5985 27.2835 26.3076 27.907 26.861C28.5306 27.4144 29.2899 27.7923 30.1074 27.9561C31.8594 28.2729 33.6665 27.9157 35.1663 26.9562C36.7665 25.9571 38.2783 24.823 39.6853 23.5663C42.5546 21.1065 45.1341 18.2566 47.9735 15.6767Z" fill="url(#paint1_linear_262_3)"/>
<defs>
<linearGradient id="paint0_linear_262_3" x1="5.08268" y1="46.1151" x2="38.9255" y2="46.1151" gradientUnits="userSpaceOnUse">
<stop offset="0.02" stop-color="#FBB040"/>
<stop offset="0.99" stop-color="#F15A24" stop-opacity="0.84"/>
</linearGradient>
<linearGradient id="paint1_linear_262_3" x1="3.07323" y1="23.0064" x2="48.9733" y2="23.0064" gradientUnits="userSpaceOnUse">
<stop offset="0.02" stop-color="#FBB040"/>
<stop offset="0.99" stop-color="#F15A24" stop-opacity="0.84"/>
</linearGradient>
</defs>
</svg>
