<svg width="317" height="354" viewBox="0 0 317 354" fill="none" xmlns="http://www.w3.org/2000/svg">
<path d="M76.8567 333.196L282.592 207.122C315.455 186.983 314.325 138.845 280.593 120.276L74.8171 7.1313C41.3444 -11.2678 0.403198 12.941 0.403198 51.1292V290.358C0.403198 329.616 43.3939 353.695 76.8567 333.196Z" fill="url(#paint0_linear_3_27)"/>
<path d="M86.8546 345.705L292.59 219.631C325.453 199.492 324.323 151.354 290.591 132.785L84.815 19.6408C51.3422 1.24166 10.401 25.4605 10.401 63.6387V302.877C10.401 342.125 53.3918 366.204 86.8546 345.705Z" fill="url(#paint1_linear_3_27)"/>
<defs>
<linearGradient id="paint0_linear_3_27" x1="10.6069" y1="172.527" x2="336.266" y2="158.157" gradientUnits="userSpaceOnUse">
<stop stop-color="#3D5CAA" stop-opacity="0.2"/>
<stop offset="1" stop-color="white" stop-opacity="0"/>
</linearGradient>
<linearGradient id="paint1_linear_3_27" x1="20.6032" y1="185.028" x2="346.269" y2="170.665" gradientUnits="userSpaceOnUse">
<stop stop-color="#3D5CAA" stop-opacity="0.2"/>
<stop offset="1" stop-color="white" stop-opacity="0"/>
</linearGradient>
</defs>
</svg>
